<svg viewBox="0 0 57 57" fill="none" xmlns="http://www.w3.org/2000/svg"><path d="M57 28.5a28.5 28.5 0 11-57 0 28.5 28.5 0 0157 0z" fill="#4A8F21"/><path d="M7.32 15.65v14.72h.93V23.4h.47l4.8 6.97h1.08L9.77 23.4c1.27.02 2.29-.29 3.07-.97a3.62 3.62 0 001.15-2.87c0-1.43-.49-2.48-1.48-3.16a4.98 4.98 0 00-2.15-.72c-.3-.03-.7-.03-1.2-.03H7.31zm.93.88h.61c1.28 0 2.17.12 2.63.34.51.21.9.56 1.17 1.05.26.48.4 1.04.4 1.6 0 1-.36 1.76-1.04 2.32-.53.45-1.39.69-2.58.69H8.25v-6zM16.84 15.65v14.72h7.03v-.87h-6.1v-6.74h5.94v-.88h-5.93v-5.35h6.09v-.88h-7.03zM26.73 15.65v14.72h.94v-6.64l.4-.39 7.05 7.03h1.24l-7.66-7.63 7.2-7.09h-1.24l-6.99 6.88v-6.88h-.94zM44.6 15.46c-2.1 0-3.87.74-5.38 2.22a7.25 7.25 0 00-2.26 5.33c0 2.07.76 3.85 2.26 5.33a7.4 7.4 0 005.37 2.22 7.4 7.4 0 005.37-2.22 7.25 7.25 0 002.27-5.33c0-2.06-.77-3.84-2.27-5.33a7.4 7.4 0 00-5.37-2.22zm0 .88c1.8 0 3.39.66 4.72 1.97a6.45 6.45 0 011.97 4.7c0 1.82-.67 3.38-1.97 4.69a6.46 6.46 0 01-4.73 1.99 6.44 6.44 0 01-4.72-1.98 6.45 6.45 0 01-1.97-4.7c0-1.81.66-3.4 1.97-4.7a6.44 6.44 0 014.72-1.97zM46.03 39.61c.04.04.09.08.12.13.21.22.36.5.43.79l.03.21c0 .08 0 .15.02.22.03.1.2.15.27.06a.23.23 0 00.05-.1 2.83 2.83 0 011-1.42c.19-.15.39-.32.45-.55a.58.58 0 00-.45-.7c.21-.14.4-.34.49-.59a.78.78 0 00-.1-.74c-.15-.2-.44-.28-.66-.18.17-.09.34-.21.33-.4a.47.47 0 00-.08-.22c-.1-.14-.2-.29-.34-.38-.3-.2-.7-.12-1.03.03a.34.34 0 00-.13.08.35.35 0 00-.07.18c-.04.2-.07.43.06.59-.2.04-.4.13-.57.24a.57.57 0 00-.18.19c-.08.14-.05.32-.01.48.03.12.06.24.12.35.07.1.17.2.3.22h-.01a1.7 1.7 0 00-.37.21.58.58 0 00-.22.35c-.03.2.08.38.2.54.07.11.15.21.25.3l.1.11zM15.88 42.15c0 .17-.1.3-.2.3-.12 0-.22-.13-.22-.3 0-.16.1-.3.21-.3.12 0 .21.14.21.3zM15.62 41.34c.1 0 .16-.12.16-.27 0-.15-.07-.27-.16-.27s-.16.12-.16.27c0 .15.07.27.16.27zM16.44 41.65c0 .17-.09.3-.2.3-.1 0-.19-.13-.19-.3 0-.17.09-.3.2-.3.1 0 .2.13.2.3zM17.01 41.65c.09 0 .16-.13.16-.29 0-.16-.07-.29-.16-.29-.08 0-.15.13-.15.29 0 .16.07.29.15.29zM17.01 42.2c0 .15-.08.26-.18.26-.1 0-.19-.11-.19-.25s.09-.26.19-.26.18.12.18.26zM16.26 43.27c.1 0 .2-.12.2-.27 0-.15-.1-.27-.2-.27-.12 0-.2.12-.2.27 0 .15.08.27.2.27z" fill="#fff"/><path fill-rule="evenodd" clip-rule="evenodd" d="M44.54 43.44a1.56 1.56 0 01-.06-.66c.05-.33.23-1.6 2.42-1.61 0 0 1.04.01 1.62.88.47.69.35 1.28.26 1.57l1.1.06c.44.02.04.42-.24.42h-.02l-1.06-.05-2.67-.12-1.16-.04v-.01l-2.7-.1h-.06l-2.16-.06c-2.57-.08-5.14-.12-7.7-.15l-1.98-.02h-2.5l-1.53.01c-1.23 0-2.46.02-3.69.04h-1l-1.12.03-5.04.13h-.01l-3.62.13v.01l-1.34.05h-.1l-.2.01-.46.03c-.66.02-1.31.06-1.97.09-.47.02-.28-.4.08-.42l1.8-.09a15.2 15.2 0 01-.23-1.42l-.1-.8c-.04-.28-.08-.57.04-.83a1 1 0 01.56-.48c.23-.09.48-.12.73-.15.34-.04.7-.07 1.03.04.27.1.55.34.65.63.1.28.04.67 0 .98v.05c-.04.27-.1.54-.15.8l-.25 1.09 3.02-.12c-.3-.51-.33-1.43-.18-2.29.22-1.23 1.5-1.67 1.5-1.67 1.1-.2 3.8-.13 4.5-.08.69.05 1.6.7 1.63 2.04.02.83-.46 1.44-1.02 1.84 2.14-.04 4.28-.06 6.42-.06l-.1-.1-.4-.45-.18-.2h-.01l-.04-.04c-.04-.04-.08-.08-.02-.12l.11-.02c.04 0 .07 0 .1-.02a.63.63 0 00.39-.46c.34.27.63.6.88.96-.04-.4-.24-.78-.54-1.03a.18.18 0 01-.06-.07c-.01-.03 0-.07.03-.08h.04l.03.01c.04 0 .06-.05.08-.1.02-.04.04-.08.08-.09l.08.02a21.59 21.59 0 00.3.18 1.94 1.94 0 01-.15-.52c.3.04.63-.14.75-.42.01-.04.04-.08.08-.08.02 0 .03.02.05.04.11.14.32.18.49.1.03-.01.07-.03.1-.01.02 0 .03.03.04.06v.01c.06.14.22.19.37.23l.11.04a.1.1 0 01.05.03c.02.03 0 .07-.01.1-.18.31-.28.66-.3 1.01.3-.23.53-.55.67-.92.02.17.13.31.28.39l.22.07.22.07c-.04.08-.12.13-.2.18l-.09.04a1.3 1.3 0 00-.33.36c-.19.26-.36.54-.5.83h.1c.05-.08.13-.16.2-.08-.07-.08 0-.23.1-.26.1-.02.22.05.26.15.1-.1.3-.12.4-.03.07.06.11.14.12.22 1.47.01 2.93.03 4.4.06h-.01c-.25-.12-.56-1.72-.56-1.72a5.18 5.18 0 01-.8-2.91c.07-.14 2.25-.82 3.97.83a9.02 9.02 0 012.18 2.85s2.73-.41 2.83-.25c.06.1-.52.8-1 1.36l2.15.08zm3.74.16h-.19v-.03c-.02-.05-.03-.12 0-.17.04-.05.11-.08.16-.04l-.02-.02c.07.04.14.09.18.16.02.03.03.07.02.1h-.15zm-6.34-.25c-.02-.19-1.56-.38-1.56-.38.07.09.27.22.49.34l1.07.04zm-4.23-.12c-.38-.12-.8-.3-1.27-.56l-.04-.03c-.02 0-.03-.02-.05-.03-.14.24-.35.54-.5.59l1.86.03zm-20.95.07a2.66 2.66 0 00.25-.16c.28-.23.38-.57.48-.91l.05-.14c.14-.45.11-.86-.06-1.3a1.6 1.6 0 00-.45-.67c-.67-.54-1.54.1-1.87.72-.26.5-.34 1.08-.22 1.63.07.34.25.69.54.87l1.28-.04zm-6.64.24a93.6 93.6 0 00-.3-1.98c-.04-.35-.01-.71.08-1.06.01-.05 0-.14-.05-.14a.1.1 0 00-.05.02.46.46 0 00-.2.3c-.02.12-.01.24 0 .37l.05.85a7.63 7.63 0 00.23 1.55l.02.1h.22zm37.87-1.48c-.07-.01-.13.04-.17.08-.03.03-.05.05-.05.07v.08a18.84 18.84 0 01.1.27l.01.02.1.27.03.1.02.07c.02.07.05.13.1.18.04.04.12.07.18.03.03-.03.05-.07.06-.12a.92.92 0 00-.02-.5 1.66 1.66 0 00-.23-.44c-.04-.05-.07-.1-.13-.11zm-12.24-2.68c-.09-.07-.06-.25.06-.39s.29-.19.38-.11c.09.08.06.25-.06.39s-.3.19-.38.11zm-.45 1.64c0-.03.06-.05.14-.08.23-.1.68-.3.98-.82 0 0 .63-.92.51-1.18-.12-.26.62.22.02 1.34-.6 1.11-1.67.82-1.65.74zm7.33 1.54s-.3.24-.51.28a7.4 7.4 0 01-1.58-.05c-.04-.07 1.73-.44 2.1-.23zm-22.37-2.21c-.67 0-1.34.01-2 .04-.12 0-.25 0-.32-.1l-.04-.1v-.03c-.02-.06-.1-.13-.15-.2-.06-.05-.1-.1-.11-.13-.02-.13.18-.15.3-.16h.04c.54-.05 1.1 0 1.64.04.45.04.9.09 1.3.28.2.1.4.26.46.47a3.8 3.8 0 00-1.12-.11z" fill="#fff"/><path d="M45.43 37.21a.8.8 0 01.68-.63c-.05-.15-.1-.3-.18-.45a.73.73 0 00-.24-.29.75.75 0 00-.2-.07c-.3-.09-.65-.1-.9.1-.2.14-.29.39-.27.63.01.24.13.47.3.65a.76.76 0 00-.62.49c-.09.25-.03.56.16.76.11.12.26.2.41.28.07.03.15.07.22.12a.6.6 0 00-.38.39.6.6 0 00.1.53c.07.08.15.14.24.2l.4.22c.13.06.26.12.37.2.26.15.5.35.59.63v.01c.02.05.04.1.1.12l.05-.01c.12-.03.25-.08.27-.2-.09-.4-.2-.84-.51-1.12l-.13-.1-.16-.13a1.63 1.63 0 01-.31-.5.83.83 0 01-.11-.43c.01-.17.13-.3.25-.4a.64.64 0 01.07-.04l.13-.09c.03-.05 0-.07-.03-.1l-.04-.02a.8.8 0 01-.26-.75zM48.65 37.48c-.04.23-.15.45-.3.64-.02.05-.06.07-.1.1l-.04.04.08.06c.1.08.18.15.25.27.08.14.1.32.05.48a.78.78 0 01-.13.2 2.15 2.15 0 01-.51.46c-.1.07-.2.14-.3.23-.11.11-.2.26-.3.4l-.05.1-.18.29c-.07.11-.13.27-.04.36.07.08.2.05.28-.01.06-.05.1-.1.14-.16l.06-.09c.22-.27.6-.36.94-.44.34-.07.72-.16.94-.44a.31.31 0 00.05-.1c.02-.04.01-.1 0-.14a.61.61 0 00-.48-.45l.3-.11c.18-.07.36-.14.52-.25a.7.7 0 00.3-.47.72.72 0 00-.2-.53c-.09-.1-.23-.2-.34-.13l.03-.04c.1-.11.19-.23.23-.37.11-.33-.1-.7-.43-.85a1.18 1.18 0 00-1.05.12c-.04.05.03.13.08.18.18.16.24.42.2.65zM39.29 40c-.22-.3-.44-.6-.71-.85-.22-.21-.46-.38-.74-.5-.18-.08-.39-.29-.02-.27.22.01.43.08.63.14a5 5 0 01.47.16l.25.11.02.01.42.2.2.1c.1.05.23.13.2.25-.03.1-.14.13-.23.16h-.05a.67.67 0 00-.44.5zM27 42.08a.58.58 0 00.12-.09c.1-.1.24-.46.07-.57.13.08.3.1.45.03.09-.04.17-.11.22-.2.08-.1.12-.25.08-.37-.04-.13-.18-.22-.3-.18.11-.08.18-.25.12-.38-.07-.13-.29-.16-.36-.04-.07-.1-.16-.18-.27-.2-.12-.03-.26.04-.28.15a.35.35 0 00-.38-.3.35.35 0 00-.28.4c-.22-.11-.49-.21-.7-.09-.2.13-.23.46-.06.62a.46.46 0 00-.51.33c-.06.21.08.46.29.53-.1-.03-.2.1-.17.19.03.1.13.14.22.16a.52.52 0 000 .4c.07.13.21.21.35.18.13-.03.21-.15.25-.28l.01.03.11.1c.06.03.14.05.2.02a.24.24 0 00.1-.13.64.64 0 00.05-.24l.15.05c.15.03.37-.03.52-.12z" fill="#fff"/><path d="M26.89 40.06a.31.31 0 00-.2-.21c-.04-.02-.1 0-.15 0-.07.02-.13.03-.17 0-.07-.07.01-.24.06-.3.08-.09.22-.13.34-.1l-.01-.1c0-.08-.02-.17.02-.26.06-.14.23-.2.39-.18h.04c.02 0 .03-.02.04-.03.09-.11.23-.17.37-.16.13.02.26.1.33.22.12-.04.23-.07.35-.08.12 0 .25.03.33.11a.6.6 0 01.16.28c.03.09.04.2-.01.26.21.01.4.2.43.42a.48.48 0 01-.34.5.48.48 0 01-.4.47h-.25c-.07-.02-.13-.03-.17-.07l-.04-.07-.04-.07a.16.16 0 00-.15-.05c.1-.14.09-.33-.02-.45-.1-.12-.32-.14-.43-.02-.02-.1-.11-.17-.2-.18a.43.43 0 00-.28.07z" fill="#fff"/><path d="M27.58 38.57c.16 0 .31.08.41.2a.7.7 0 01.67.1c.2.14.3.39.26.62.2 0 .38.2.4.4.02.21-.1.41-.26.54a.7.7 0 00.57.15c.03 0 .07 0 .09-.03.03-.04.04-.09.04-.14v-.04c.01-.11.1-.22.2-.25a.31.31 0 01-.01-.4c.09-.1.27-.13.39-.06-.02-.09.02-.2.1-.24.08-.05.2-.01.24.08.04-.12.09-.24.2-.29.14-.06.3.02.44.1.08-.11.1-.28.01-.39-.08-.11-.26-.14-.37-.05a.3.3 0 00-.2-.32.3.3 0 00-.34.15c-.02-.15-.05-.32-.16-.43a.43.43 0 00-.4-.1.66.66 0 00-.37.23.6.6 0 00-.22-.6.66.66 0 00-.64-.06.74.74 0 00-.4.48c0-.03-.04-.05-.06-.06a1.06 1.06 0 00-.53 0 .6.6 0 00-.3.1c-.1.08-.21.34-.14.45.12-.08.23-.15.38-.14z" fill="#fff"/><path d="M30.5 39.52c-.06 0-.07.05-.08.1v.03c0 .05 0 .1-.04.11-.02.01-.06 0-.1-.02l-.06-.02c-.06-.01-.13 0-.18.05-.05.06-.05.15-.02.22.03.07.08.13.14.19a.38.38 0 00-.19.6c.12.15.34.19.53.15h.06c.04 0 .06.05.08.1.1.26.3.48.57.59.26.1.58.07.8-.1l.27.18c.1.04.2.07.3.05.08-.03.15-.1.17-.18a.26.26 0 00-.05-.24c.07.04.16 0 .2-.07.03-.07 0-.16-.04-.22a.4.4 0 00-.19-.12l.17-.12c.05-.05.1-.1.11-.17.04-.14-.07-.28-.18-.38-.1-.1-.22-.2-.36-.17.08-.1.06-.25 0-.36a.73.73 0 00-.3-.25.61.61 0 00-.23-.08c-.09 0-.18.02-.23.09l-.01.01c-.01.02-.03.04-.05.04a.1.1 0 01-.06-.01l-.14-.08a1.33 1.33 0 00-.17-.1c-.11-.04-.25-.05-.34.03-.06.04-.12.12-.11.19-.04 0-.08 0-.12-.02h-.02c-.04-.02-.09-.04-.13-.02zM22.32 40.62l.02.03c.12.29.16.6.1.91l-.03.15c-.07.2-.16.46.1.48.12.02.23-.11.21-.24l-.01-.04c-.01-.03-.02-.06-.01-.1.02-.07.12-.09.19-.06.04.02.07.06.1.09l.08.05c.1.07.26.07.3-.05.01-.07-.04-.14-.1-.2a.4.4 0 01-.11-.16c-.04-.12.09-.24.21-.28h.03c.09-.03.2-.07.2-.16a.17.17 0 00-.02-.09.52.52 0 00-.6-.25c0-.11.04-.23.12-.31l.08-.08.12-.14c.05-.09.03-.22-.06-.25-.1-.03-.17.06-.22.14l-.15.2-.2.3c-.07 0-.1-.07-.12-.14-.02-.06-.05-.13-.1-.15-.08-.03-.17.05-.18.14 0 .07.02.14.05.21zM10.4 39.64v.04c0 .08-.07.1-.17.12h-.01c-.05 0-.1.02-.14.03a22.62 22.62 0 01-.24.03c-.07-.03-.1-.19-.11-.3l-.01-.07-.07-.44c-.07 0-.13 0-.2.02l-.09.02c-.1 0-.2 0-.28-.06-.08-.06-.1-.2-.02-.26a.4.4 0 01-.4-.2.4.4 0 01.03-.43.42.42 0 01-.23-.4c.02-.16.16-.3.32-.3a.69.69 0 01-.09-.24.27.27 0 01.08-.23c.06-.06.17-.06.23 0a.63.63 0 01.03-.33c.05-.1.15-.18.26-.17.1.01.18.09.25.16a3.84 3.84 0 01.06.07.23.23 0 01.17-.17c.08-.02.17 0 .25.04.2.12.28.42.16.62.14-.06.32-.01.39.12s-.01.32-.16.34c.18-.01.36.13.39.31.02.18-.1.37-.29.4.06.11.06.24 0 .34-.06.11-.16.16-.27.2l.01.1v.08l.03.08.02.03.03.12.03.13c.02.07.04.13.04.2z" fill="#fff"/><path d="M11.18 39.79c.1-.3.18-.6.23-.92.13.07.3.05.4-.04.12-.1.16-.26.1-.4.14.04.28.07.4.01.14-.08.18-.27.13-.42a1 1 0 00-.28-.39c.1.04.23-.01.29-.11a.29.29 0 00-.03-.32.34.34 0 00-.3-.12c.12-.1.2-.25.2-.4 0-.16-.09-.3-.21-.4-.12-.1-.33-.11-.41.01l-.03-.16v-.04a.23.23 0 00-.05-.11c-.03-.04-.08-.05-.13-.06a.57.57 0 00-.37.07.4.4 0 00-.2.3.34.34 0 00-.35.04c-.1.08-.14.21-.12.33-.07-.01-.13.08-.13.16v.07c.01.06.02.1 0 .16a.4.4 0 01.33.2.4.4 0 01-.02.4.4.4 0 01.3.33.4.4 0 01-.22.4c-.02 0-.04.01-.05.03-.02.02-.02.04-.02.06 0 .11-.04.22-.1.3.04.03.09.04.13.01l-.06.33a93.86 93.86 0 01-.06.37c-.01.07-.03.16 0 .21.02.06.04.05.09.05l.04-.01c.17-.02.34 0 .5.06z" fill="#fff"/></svg>
