<svg xmlns="http://www.w3.org/2000/svg" viewBox="0 0 215.43 215.43"><defs><clipPath id="a" clipPathUnits="userSpaceOnUse"><path d="M1246.11 304.25h174.91v301.73h-174.91z"/></clipPath><clipPath id="b" clipPathUnits="userSpaceOnUse"><path d="M974.77 316.21h255.26v213.55H974.77z"/></clipPath><clipPath id="c" clipPathUnits="userSpaceOnUse"><path d="M705.98 332.24h228.34V547.4H705.98z"/></clipPath><clipPath id="d" clipPathUnits="userSpaceOnUse"><path d="M409.85 372.75h259.3v129.97h-259.3z"/></clipPath><clipPath id="e" clipPathUnits="userSpaceOnUse"><path d="M240.09 283.54l113.98.1-.3 314.04-113.98-.1z"/></clipPath></defs><path d="M215.43 107.7c0 59.5-48.22 107.73-107.71 107.73C48.22 215.43 0 167.2 0 107.7S48.23-.01 107.72-.01s107.71 48.23 107.71 107.72" fill="#4b9022"/><text style="-inkscape-font-specification:Futura-Light" transform="matrix(1.33333 0 0 1.33333 21.67 114.78)" font-weight="300" font-size="55.32" font-family="Futura" fill="#fff"><tspan y="0" x="0 27 55.04 86.52">REKO</tspan></text><g clip-path="url(#a)" fill="#fff" transform="matrix(.13333 0 0 -.13333 0 215.43)"><path d="M1260.51 401.37c-1.16-4.96 1.51-48.88 48.59-58.62.79-.16 1.56-.28 2.34-.42a28.4 28.4 0 01.17-6.7c.68-4.76 2.36-9.31 4.21-13.75 1.31-3.14 2.73-6.37 2.7-9.77-.04-3.41-2-7.07-5.31-7.86 3.2.5 6.49 1.33 8.93 3.46 2.68 2.35 3.96 6.02 4.01 9.58.04 3.56-1.03 7.05-2.4 10.33-.79 1.9-1.69 3.76-1.97 5.8-.26 2.02.22 4.27 1.8 5.58 1.02.85 2.26 1.5 3.16 2.2 35.42 1.24 53.56 29.73 54.63 33.54 1.25 4.42 10.57 24.76-5.91 49.18-16.5 24.42-46.03 24.9-46.03 24.9-67.34-.3-67.76-42.48-68.92-47.45m102.85-15.85c.88 1.44 3.02 2.13 4.34 1.09l-.48.65c2.02-1.12 4-2.5 5.07-4.52 1.08-2.03.93-4.87-.89-6.3-1.42-1.1-3.56-1.03-5.13-.1a7.54 7.54 0 00-3.17 4.29c-.52 1.6-.62 3.46.26 4.89m-7.98 35.56c1.37 1.3 3.05 2.69 4.92 2.39 1.6-.25 2.72-1.65 3.65-2.97 2.75-3.93 5.16-8.15 6.58-12.73 1.44-4.58 1.85-9.54.64-14.2-.31-1.2-.79-2.44-1.81-3.17-1.56-1.11-3.86-.49-5.21.86-1.36 1.34-2.01 3.23-2.63 5.04l-.7 2.11c-1.14 3.37-2.19 6.78-3.44 10.11l-.27.79-2.77 7.72c-.24.68-.49 1.4-.34 2.1.17.8.79 1.39 1.38 1.95M1308.32 489.37c-2.09 2.23-4.38 4.26-6.5 6.46a78.34 78.34 0 00-7.16 8.65c-3.25 4.5-6.25 9.79-5.47 15.27.57 4 3.14 7.49 6.29 10.02 3.15 2.53 6.87 4.22 10.55 5.89-3.51.64-6.42 3.23-8.25 6.29-1.84 3.07-2.73 6.58-3.55 10.05-1.07 4.51-1.97 9.52.29 13.57 1.21 2.17 3.19 3.79 5.25 5.2a46.49 46.49 0 0016.22 6.98c-3.79 4.44-2.91 11.07-1.79 16.79.34 1.73.71 3.53 1.84 4.88.95 1.13 2.32 1.81 3.66 2.4 9.33 4.2 20.81 6.4 29.39.82 4.08-2.64 6.98-6.73 9.48-10.9 1.15-1.92 2.28-3.98 2.37-6.22.28-5.54-5.36-9.3-10.28-11.9 6.35 3.79 15.23 1.38 19.79-4.42 4.55-5.8 5.08-14.12 2.53-21.05-2.56-6.92-7.84-12.57-13.83-16.87 8.66-1.36 15.03-11.03 12.85-19.51-2.04-7.97-9.66-12.93-15.98-18.2a80.16 80.16 0 01-25.23-37.96c-.3-.95-.59-1.95-1.26-2.7-2.27-2.57-6.88-1.06-7.65 1.83-1.01 3.82-.48 8.28-1.47 12.26a50.95 50.95 0 01-12.09 22.37"/><path d="M1287.72 560.94c1.8 9.19 10.01 16.74 19.32 17.76a72.1 72.1 0 01-5.14 12.75c-1.65 3.2-3.65 6.36-6.69 8.26a20.52 20.52 0 01-5.57 2.2c-8.61 2.3-18.59 2.72-25.65-2.71-5.42-4.16-8.14-11.3-7.74-18.13.41-6.82 3.69-13.28 8.34-18.3a21.62 21.62 0 01-17.28-13.85 21.65 21.65 0 014.49-21.69c4.85-5.14 11.86-7.52 17.84-11.29a16.8 16.8 0 01-10.64-11.02c-1.5-5.1-.36-10.89 2.96-15.03 1.79-2.23 4.11-3.96 6.51-5.51 7.03-4.5 14.87-7.62 22.01-11.95 7.14-4.33 13.81-10.25 16.53-18.14.51-1.45 1.13-3.21 2.64-3.5.6-.12 1.24.05 1.83.21 3.15.87 6.81 2.23 7.62 5.4-2.65 11.59-5.74 23.96-14.6 31.88-2.64 2.36-5.7 4.23-8.23 6.7-4.05 3.95-6.51 9.21-8.89 14.34-1.75 3.79-3.55 7.8-3.12 11.96.49 4.69 3.69 8.35 7.23 11.17 1.36 1.08 4.7 2.38 5.58 3.8 1.22 1.97-.27 2.18-1.87 3.56-5.89 5.11-8.98 13.43-7.48 21.13M1370.82 535.15c3.89 5.47 7.24 11.52 8.24 18.15 1 6.64-.71 13.95-5.66 18.47-1.55 1.41-3.52 3.58-2.17 5.16.27.34.67.56 1.06.76 8.75 4.7 19.57 6.54 28.67 2.55 9.11-3.98 15.38-14.82 12.22-24.24-1.48-4.4-4.68-7.96-7.59-11.58 3.28 1.83 7.31-.72 9.77-3.56 3.57-4.12 6.13-9.49 5.59-14.92-.54-5.42-4.12-10.17-8.5-13.39-4.4-3.24-9.59-5.16-14.7-7.04-2.85-1.07-5.71-2.11-8.57-3.18a17.3 17.3 0 0013.72-12.81c.3-1.3.45-2.71.07-4a8.45 8.45 0 00-1.61-2.82c-6.25-7.8-16.83-10.37-26.62-12.46-9.78-2.1-20.37-4.69-26.58-12.53-1.84-2.32-3.24-5.05-5.55-6.92-2.3-1.87-6.01-2.52-8.08-.4-2.61 2.66-.75 7.09 1.21 10.27l6.74 10.95c2.5 4.05 5.03 8.15 8.42 11.5 3.69 3.65 8.27 6.25 12.41 9.39a59.87 59.87 0 0110.36 9.96 21.5 21.5 0 013.66 5.83c1.69 4.39.88 9.48-1.42 13.57-2.33 4.1-5.85 6.42-9.29 9.41 1.46 1.25 2.99 2.18 4.2 3.88"/></g><g clip-path="url(#b)" fill="#fff" transform="matrix(.13333 0 0 -.13333 0 215.43)"><path d="M1161.3 319.84c-.56 3.36 18.53 40.56 23.82 47.43 5.29 6.89 47.67 53.25 44.77 57.91-2.91 4.68-80.06-7.15-80.06-7.15s-13.12 34.37-61.84 81c-48.7 46.65-110.7 27.4-112.76 23.44-1.5-2.9-.52-46.67 22.84-82.63l-.03.02s8.8-45.28 15.79-48.48c4.51-2.07 11.94 8.63 16.64 16.44.85-.53 1.67-1.06 2.54-1.56 46.34-26.37 79.97-23.89 92.91-21.22 3.43-12.87 9.75-26.85 19.34-48.4 12.51-28.07 16.6-20.16 16.04-16.8m-147.97 179.55c-2.52 2.19-1.78 7.17 1.65 11.12 3.43 3.95 8.26 5.37 10.78 3.18 2.52-2.19 1.78-7.16-1.65-11.11-3.43-3.95-8.25-5.38-10.78-3.19m-12.74-46.3c.63 2.32 20.11 4.92 31.84 25.4 0 0 17.81 26.11 14.39 33.38-3.41 7.29 17.71-6.06.58-37.8-17.13-31.72-47.43-23.3-46.81-20.99m207.88-43.7s-8.69-6.8-14.65-8.06c-5.98-1.26-43.43-.27-44.66 1.5-1.23 1.8 49.17 12.5 59.31 6.55m-28.77-33.09c-2.37 2.07-30.43 14.98-35.05 21.52 0 0 44-5.62 44.29-10.9.3-5.27-6.86-12.7-9.24-10.62"/><path d="M1093.58 506.08c7.64-7.37 13.96-15.99 20.24-24.57a18.92 18.92 0 0012.43 13.98c3.04.98 6.98 1.73 7.8 4.84.86 3.27-2.65 5.75-5.64 7.19l-17.55 8.38c-2.53 1.2-5.05 2.4-7.64 3.47a151.03 151.03 0 01-13.21 4.47c-5.88 1.78-11.82 3.58-17.98 3.88-10.37.54-4.51-5.2.64-7.49a71.86 71.86 0 0020.91-14.15"/></g><g clip-path="url(#c)" fill="#fff" transform="matrix(.13333 0 0 -.13333 0 215.43)"><path d="M765.47 422.9c1.24.73 2.34 1.56 3.23 2.45 2.89 2.85 6.93 13.26 1.98 16.3a13.83 13.83 0 0112.68-.82 16.02 16.02 0 016.49 5.56c2.13 3.08 3.35 7.06 2.19 10.63-1.16 3.56-5.23 6.24-8.77 5 3.43 2.32 5.38 7.12 3.52 10.83-1.85 3.7-7.98 4.62-10.16 1.1-1.9 2.7-4.49 5.15-7.73 5.77-3.24.64-7.08-1.22-7.7-4.46-.38 5.13-5.62 9.36-10.72 8.66-5.1-.7-9-6.18-8-11.23-6.22 3.08-13.83 5.86-19.8 2.33-5.87-3.49-6.78-12.98-1.69-17.52-6.25 1.18-13.04-3.13-14.64-9.28-1.6-6.16 2.24-13.23 8.27-15.24-2.74 1.02-5.64-2.38-4.87-5.2.75-2.82 3.74-4.13 6.31-4.67-1.3-3.6-1.61-7.77.16-11.3 1.75-3.5 5.83-5.94 9.66-5.08 4.74 1.06 7.27 6.34 7.89 11.16-.96-1.02-.98-2.68-.34-3.93a6.97 6.97 0 013.05-2.79c1.7-.89 3.78-1.43 5.5-.61 1.43.67 2.32 2.1 2.95 3.53a18.75 18.75 0 011.55 6.72c1.33-.54 2.67-1.1 4.08-1.34 4.35-.79 10.5.78 14.9 3.42"/><path d="M756.59 486.23a8.63 8.63 0 005.55-5.95c2.36 1.35 5.1 2.24 7.79 1.86 2.7-.38 5.28-2.29 5.86-4.95 3.28 3.2 9.22 2.75 12.3-.65 3.06-3.4 3.1-8.97.45-12.7 1.6.3 3.34-.34 4.35-1.62.95-1.2 1.25-2.85 2.32-3.94 1.14-1.16 2.87-1.45 4.48-1.67 2.5-.34 5.06-.69 7.57-.3 6.31.96 11.37 7.17 11.05 13.55 5.98 1.63 10.32 7.94 9.7 14.1-.62 6.18-6.13 11.5-12.32 11.91 1.67 1.86 1.16 4.76.41 7.15-.92 2.95-2.13 5.95-4.42 8.02-2.51 2.28-6.06 3.15-9.45 3.05-3.39-.11-6.68-1.09-9.91-2.12a12.32 12.32 0 01-9.46 6.13 12.34 12.34 0 01-10.4-4.33c-.34-.4-.67-.84-1.16-1-.38-.13-.79-.06-1.18 0-4.34.57-9.33-1.18-11.06-5.2-1.38-3.2-.41-6.85-.36-10.33a9.28 9.28 0 01-9.43-2.64c-1.43-1.61-3.75-6.6-1.64-8.5 1.78-1.57 6.42.96 8.96.13"/><path d="M781.92 522.41c4.4-.15 8.7-2.27 11.5-5.68a19.7 19.7 0 0019.14-2.64 19.7 19.7 0 007.25-17.9c5.86-.02 10.83-5.5 11.34-11.34.51-5.84-2.75-11.58-7.4-15.16a19.91 19.91 0 0116.15-4.39c.93.17 1.9.42 2.57 1.1 1.26 1.25.92 3.32 1.09 5.09.3 3.15 2.66 5.99 5.69 6.88a8.8 8.8 0 00-.32 11.2 8.81 8.81 0 0011.07 1.82c-.5 2.64.56 5.63 2.9 6.94 2.34 1.3 5.8.32 6.7-2.2 1.07 3.24 2.62 6.7 5.73 8.14 4.03 1.84 8.64-.55 12.42-2.88 2.34 3.2 2.7 7.91.34 11.1-2.36 3.17-7.5 4.07-10.48 1.46a8.37 8.37 0 01-5.57 9.13 8.38 8.38 0 01-9.78-4.33c-.63 4.38-1.41 9.08-4.51 12.23-2.9 2.96-7.46 3.96-11.5 3.06-4.05-.9-7.57-3.5-10.18-6.72 1.4 6.16-1.32 12.96-6.4 16.7-5.08 3.74-12.18 4.39-17.99 1.91-5.8-2.47-10.2-7.86-11.78-13.97.5.85-.58 1.76-1.5 2.1-4.79 1.68-10.04.84-15.04-.02-2.98-.5-6.11-1.1-8.45-3.02-2.5-2.08-6-9.42-4.01-12.49 3.55 2.13 6.66 4.04 11.02 3.88"/><path d="M862.43 492.77c.07 1.3.4 2.48 2.14 2.86 1.23.3 2.52-.07 3.72-.48 1.25-.42 2.66-1 3.93-.7-.16 1.93 1.52 4.24 3.01 5.38 2.7 2.07 6.56 1.8 9.72.52 3.14-1.27 5.88-3.38 8.93-4.86.5-.24 1.06-.46 1.6-.36.77.18 1.21.96 1.7 1.6 1.48 1.88 4.07 2.66 6.46 2.48 2.4-.18 4.65-1.19 6.76-2.35 3.19-1.74 6.29-3.9 8.17-7 1.87-3.12 2.28-7.34.18-10.3 3.82.64 7.34-2.1 10.17-4.77 3.06-2.87 6.26-6.72 5.19-10.78-.5-1.87-1.86-3.4-3.3-4.7a30.03 30.03 0 00-4.58-3.44c2.03-.72 4.01-1.8 5.32-3.51 1.32-1.72 1.84-4.14.92-6.09-.92-1.95-3.49-3.09-5.4-2.08a7.5 7.5 0 001.37-6.9 7.48 7.48 0 00-5.05-4.92c-2.73-.76-5.66.11-8.22 1.32a31.3 31.3 0 00-7.64 5.1c-6.47-4.69-15.37-5.54-22.83-2.68-7.45 2.86-13.36 9.22-16.2 16.7-.46 1.21-1.06 2.67-2.35 2.9-.5.1-1-.02-1.5-.13-5.38-1.11-11.63-.04-15.06 4.26a11.03 11.03 0 00-1.87 9.93 10.97 10.97 0 007.15 7.14c-1.53 1.56-3.12 3.2-3.96 5.2-.86 2.02-.82 4.58.65 6.2 1.25 1.37 3.27 1.8 5.1 1.54 1.09-.17 3.46-1.72 4.44-1.3 1.58.69 1.23 2.56 1.33 4.22M857.98 386.62c-.32.5-.57 1.06-.76 1.65-.16.5-.27 1.01-.2 1.52.07.44.25.84.44 1.24.85 1.79 4.53 7.05 7.2 4.18-2.1 2.27-.3 6.46 2.7 7.18 3 .72 6.14-1.34 7.54-4.09a8.98 8.98 0 0011.38.68 8.99 8.99 0 002.28-11.16 5.67 5.67 0 007.01-1.97 6.15 6.15 0 00-.74-7.35 6.68 6.68 0 00-7.35-1.4c1.92-.27 3.14-2.5 2.8-4.4-.31-1.93-1.79-3.47-3.45-4.5-1.44-.88-3.17-1.48-4.84-1.16-1.66.33-3.17 1.79-3.14 3.48-.91-1.47-3.35-1.41-4.47-.09-1.12 1.33-.97 3.42.03 4.83-.52-1.77-2.52-2.82-4.36-2.72-1.86.08-3.55 1.08-4.98 2.26-1.44 1.19-5.5 8.12-.55 7.88a8.32 8.32 0 00-6.54 3.94"/><path d="M777.42 432.76a120.24 120.24 0 0024.95-27.12 43.72 43.72 0 01-15.26 29.3c-.65.55-1.34 1.1-1.65 1.9-.3.79.01 1.89.82 2.1.63.18 1.27-.19 1.92-.17 2.51.07 2.14 4.98 4.62 5.42.78.13 1.55-.3 2.23-.68l8.46-4.86a54.81 54.81 0 00-4.1 14.62c8.63-1.22 17.75 3.92 21.15 11.93.43 1.01 1.11 2.27 2.2 2.1.6-.09 1.01-.6 1.42-1.05a12.32 12.32 0 0113.98-2.96c.9.42 1.93.95 2.8.5.79-.4 1.04-1.36 1.38-2.17 2.03-4.93 8.5-5.68 13.53-7.45.51-.19 1.06-.42 1.38-.88.6-.87.06-2.05-.47-2.98a67.98 67.98 0 01-8.51-28.63 59.38 59.38 0 0119.04 26.04 15.23 15.23 0 017.94-10.79c3.92-2 8.55-2.22 12.54-4.07-1.49-3.13-5.14-4.43-8.06-6.3-3.96-2.55-6.82-6.45-9.55-10.29-10.4-14.74-20.38-31.15-20.39-49.18a24.66 24.66 0 0110.83 10.92 9.67 9.67 0 017.3-7.13 70.14 70.14 0 01-18.03-24.73c-1.09-2.49-2.06-5.11-3.89-7.13-2.02-2.23-4.88-3.5-7.74-4.43a47.73 47.73 0 00-22.98-1.64c-3.12.53-6.61 1.76-7.7 4.73-.87 2.36.11 4.98-.1 7.5a15.19 15.19 0 01-1.22 4.24 252.67 252.67 0 01-10.59 22.96c-2.9 5.55-6.03 11.01-9.9 15.94-2.06 2.61-4.32 5.06-6.57 7.51l-11.52 12.51-5.56 6.03c-1.46 1.58-3.76 2.98-1.54 4.3 1.27.74 4.27.5 5.85 1.1 1.8.7 3.5 1.7 5 2.91a16.69 16.69 0 015.99 10.08"/></g><g clip-path="url(#d)" fill="#fff" transform="matrix(.13333 0 0 -.13333 0 215.43)"><path d="M450.25 420.8c0-4.76-2.68-8.62-5.99-8.62-3.3 0-5.99 3.86-5.99 8.62s2.68 8.62 6 8.62c3.3 0 5.98-3.86 5.98-8.62M447.37 451.44c0-4.23-2.03-7.66-4.55-7.66-2.5 0-4.54 3.43-4.54 7.66s2.03 7.66 4.54 7.66c2.52 0 4.55-3.43 4.55-7.66M466.04 435.16c0-4.75-2.47-8.6-5.5-8.6-3.04 0-5.5 3.85-5.5 8.6 0 4.76 2.46 8.62 5.5 8.62 3.03 0 5.5-3.86 5.5-8.62M486.63 443.3c0-4.5-1.93-8.14-4.31-8.14s-4.3 3.65-4.3 8.14c0 4.5 1.92 8.14 4.3 8.14s4.3-3.64 4.3-8.14M482.32 419.36c0-3.96-2.36-7.18-5.26-7.18-2.92 0-5.27 3.22-5.27 7.18 0 3.97 2.35 7.18 5.26 7.18 2.9 0 5.27-3.2 5.27-7.18M466.52 396.86c0-4.23-2.57-7.65-5.74-7.65-3.18 0-5.75 3.42-5.75 7.65s2.57 7.67 5.75 7.67c3.17 0 5.74-3.44 5.74-7.67"/><path d="M582.38 501.23c-19.63 1.43-96.23 3.35-127.35-2.39 0 0-36.38-12.46-42.6-47.4-6.23-34.95-1.92-73.25 21.3-76.6 23.21-3.35 115.13-2.87 137.63 2.87s58.4 27.78 57.45 65.6c-.96 37.81-26.8 56.48-46.43 57.92m-85.27-78.59c-3.31-10.74-5.77-22.34-14.99-29.8-1.31-1.07-2.72-2-4.16-2.9-7.6-4.65-14.44-7.35-23.4-6.83-3.2.2-6.42.38-9.5 1.25-11.84 3.29-18.95 15.64-21.53 27.64a68.68 68.68 0 006.27 46.06c9.3 17.69 33.9 35.74 52.92 20.35 5.92-4.8 9.83-11.66 12.67-18.73 5.05-12.54 5.67-24.21 1.71-37.04m77.13 49.38c-18.9-.03-37.79-.41-56.66-1.14-3.25-.13-7.09.01-8.92 2.69-.77 1.13-1.02 2.52-1.42 3.82-1 3.28-6.86 7.22-7.25 9.43-.7 3.97 6.32 4.2 9.62 4.49 15.5 1.42 31.11.04 46.61-1.33 12.6-1.12 25.53-2.33 36.87-7.91 5.7-2.8 11.2-7.15 12.87-13.27-10.2 3.11-21.06 3.23-31.72 3.22M633.14 463.33c-.96 2.25-2.15 4.58-1.89 7.02.27 2.44 2.77 4.8 5.04 3.86 3.33-1.4 2.57-7.83 6.15-8.3l10 14.37c1.51 2.17 3.74 4.62 6.29 3.91 2.71-.76 3.16-4.69 1.74-7.13-1.42-2.44-3.95-4-5.78-6.15a13.3 13.3 0 01-3.14-8.93c6.34 1.91 13.84-1.25 16.9-7.14.4-.78.74-1.63.68-2.5-.19-2.85-3.86-3.67-6.6-4.5-3.56-1.08-7.06-4.43-6.1-8.05 1.04-3.91 6.84-6.26 5.82-10.18-.84-3.25-5.7-3.36-8.42-1.4-1.74 1.26-3.13 3.03-5.07 3.93-1.95.9-4.84.36-5.37-1.71-.33-1.3.4-2.63.66-3.96.7-3.5-2.68-7.17-6.23-6.78-9.09 1-2.29 13.27-1.54 17.92a46.71 46.71 0 01-3.14 25.72"/></g><g clip-path="url(#e)" fill="#fff" transform="matrix(.13333 0 0 -.13333 0 215.43)"><path d="M313.4 304.76l2.73 11.42c7.74 32.55 15.71 65.01 22.83 97.78 1.65 7.61 3.3 15.22 4.27 22.94 1.1 8.77 2.84 20.68-.04 29.2-2.73 8.1-10.64 14.87-18.48 17.7-9.17 3.32-19.27 2.23-28.96 1.1-7.09-.82-14.27-1.67-20.91-4.26-6.66-2.59-12.82-7.16-15.82-13.63-3.34-7.2-2.35-15.58-1.28-23.45l3.07-22.73a755.3 755.3 0 013.38-23.25c4.32-25.92 11.3-51.31 18.28-76.65 3.3-12.03 6.7-24.26 13.46-34.74.57-.87 1.21-1.78 2.18-2.18 8.39-3.47 14.17 16.01 15.3 20.75m-28.28 58.45c-1.07 1.35-1.44 3.11-1.78 4.8l-6.39 32.11c-.9 4.57-1.81 9.15-2.41 13.76-.61 4.72-.89 9.47-1.16 14.21l-1.4 24.12c-.21 3.49-.41 7.03.33 10.43.73 3.42 2.53 6.75 5.52 8.57.4.25.86.48 1.34.46 1.66-.1 1.75-2.5 1.36-4.11a92.3 92.3 0 01-2.42-29.99 184.7 184.7 0 012.1-15.05c3.38-20.2 6.66-40.47 9.38-60.64a3.84 3.84 0 00-4.47 1.33M294.8 490.93c.05.37.05.77.02 1.24-.23 3.11-1.44 6.23-2.01 9.3-.2 1.1-.41 2.22-.82 3.27-.42 1.07-1.03 2.05-1.25 3.18-.34 1.78-.01 3.63-.43 5.41 3.1.95 5.87 2.3 7.53 5.25a10.42 10.42 0 01.22 9.62c5.04 1.06 8.76 6.4 8.01 11.48-.75 5.09-5.85 9.14-10.98 8.7 4.14.62 6.46 6.06 4.5 9.77-1.95 3.7-7.08 5.07-10.91 3.38 3.4 5.81 1.13 14.22-4.76 17.5a9.57 9.57 0 01-6.9 1.16c-2.3-.58-4.36-2.45-4.78-4.8l-1.85 1.94c-1.97 2.1-4.21 4.31-7.08 4.54-3.08.25-5.92-2.04-7.2-4.84-1.3-2.81-1.3-6.03-1.05-9.1-1.7 1.68-4.72 1.42-6.49-.18-1.76-1.6-2.39-4.18-2.12-6.54.26-2.37 1.28-4.58 2.39-6.7-4.57-.01-8.58-4.15-8.96-8.7-.4-4.57 2.48-9.08 6.55-11.17a11.46 11.46 0 01-.88-12.43c2.2-3.81 6.8-6.09 11.17-5.51-2.13-1.79-1.49-5.52.67-7.28 2.15-1.76 5.19-1.97 7.95-1.63 2.67.32 5.52 1.33 8.2.97-.2.03 1.7-11.49 1.94-12.49.52-2.28.84-9.47 3.49-10.34.93-.3 1.96-.1 2.92.09l7.73 1.57c2.96.6 4.92.87 5.19 3.34"/><path d="M316.88 487.85a147.2 147.2 0 016.6 25.93A10.45 10.45 0 01335 515.1a10.45 10.45 0 012.86 11.23c3.63-1.03 7.7-2.01 11.01-.23 4 2.14 5.18 7.64 3.78 11.96-1.4 4.32-4.7 7.72-7.96 10.88 3-.98 6.57.53 8.15 3.27a8.23 8.23 0 01-.77 8.93 9.73 9.73 0 01-8.41 3.52 14.59 14.59 0 015.4 11.46 14.62 14.62 0 01-5.79 11.27c-3.5 2.61-9.22 3.1-11.7-.5-.3 1.86-.6 3.71-.92 5.57-.2 1.21-.43 2.49-1.24 3.42-.9 1.03-2.35 1.4-3.71 1.59-3.58.5-7.37.03-10.48-1.79-3.13-1.83-5.49-5.1-5.73-8.7a9.67 9.67 0 01-9.82-1.2 9.69 9.69 0 01-3.39-9.3c-2.14.48-3.7-2.16-3.69-4.34 0-2.2.77-4.48 0-6.53 3.9-.11 7.65-2.48 9.43-5.95a11.18 11.18 0 00-.68-11.13 11.2 11.2 0 008.43-9.39 11.22 11.22 0 00-6.06-11.08c-.6-.29-1.27-.55-1.64-1.12-.37-.55-.36-1.25-.38-1.9a15.1 15.1 0 00-2.88-8.28 3.29 3.29 0 013.6-.4c-1.03-6.22-2.07-12.43-3.12-18.64-.31-1.87-1.25-5.27-.36-7.08 1.01-2.04 1.64-1.32 3.91-1.09a31.1 31.1 0 0014.04-1.7"/></g><path d="M28.52 166.6a1567.5 1567.5 0 01159 .08c1.08.06 2.71-1.51.97-1.6a1574.3 1574.3 0 00-159.66-.07c-1.34.07-2.09 1.67-.31 1.58" fill="#fff"/><path d="M187.53 166.68c2.81 0-.28 3.03-1.1 5.72-5.56 18.23-38.75 32.23-78.85 32.23-40.1 0-73.3-14-78.85-32.23-.83-2.7.56-5.95 3.37-5.95l6.76-.34 6.62-.25 12.15-.46 19.06-.5 4.25-.08 11.94-.13 11.58-.1h9.4l8.27.1 14.81.3 13.31.24 8.38.25 14.81.54 7.08.34 7 .32" fill="#4b9022"/></svg>