<?xml version="1.0" standalone="no"?>
<!DOCTYPE svg PUBLIC "-//W3C//DTD SVG 20010904//EN"
 "http://www.w3.org/TR/2001/REC-SVG-20010904/DTD/svg10.dtd">
<svg version="1.0" xmlns="http://www.w3.org/2000/svg"
 width="700.000000pt" height="700.000000pt" viewBox="0 0 700.000000 700.000000"
 preserveAspectRatio="xMidYMid meet">
<metadata>
Created by potrace 1.11, written by Peter Selinger 2001-2013
</metadata>
<g transform="translate(0.000000,700.000000) scale(0.100000,-0.100000)"
fill="#000000" stroke="none">
<path d="M3340 6994 c-699 -46 -1264 -235 -1810 -605 -321 -218 -655 -543
-872 -850 -226 -320 -410 -697 -513 -1049 -320 -1105 -87 -2288 627 -3176 592
-737 1428 -1190 2388 -1295 148 -16 532 -16 680 0 539 59 1023 220 1467 488
793 479 1367 1258 1588 2158 71 288 98 523 98 840 0 343 -36 612 -123 929
-353 1285 -1435 2273 -2740 2505 -235 42 -601 68 -790 55z m2375 -1918 c155
-44 284 -117 403 -230 174 -165 268 -350 294 -577 20 -180 -23 -385 -115 -548
-49 -87 -192 -242 -283 -307 -180 -129 -417 -190 -637 -164 -217 25 -387 104
-543 252 -95 90 -164 184 -213 289 -67 142 -76 190 -75 389 0 165 2 180 28
260 56 169 129 284 258 405 129 122 278 202 443 239 94 21 354 16 440 -8z
m-4371 -11 c153 -32 272 -117 325 -229 99 -210 55 -472 -102 -600 -76 -62
-150 -90 -304 -113 l-52 -8 289 -418 c160 -229 290 -419 290 -422 0 -3 -30 -5
-67 -5 l-68 1 -290 424 c-262 384 -293 424 -317 425 l-28 0 0 -425 0 -425 -60
0 -60 0 0 905 0 905 188 0 c125 0 210 -5 256 -15z m1586 -40 l0 -55 -370 0
-370 0 0 -325 0 -325 360 0 360 0 0 -60 0 -60 -360 0 -360 0 0 -410 0 -410
370 0 370 0 0 -55 0 -55 -432 2 -433 3 -3 890 c-1 490 0 896 3 903 3 9 100 12
435 12 l430 0 0 -55z m472 -363 l3 -419 425 419 425 418 80 0 79 0 -443 -437
-443 -436 469 -469 468 -468 -80 0 -80 0 -430 430 -429 429 -23 -21 -23 -21 0
-409 0 -408 -60 0 -60 0 0 905 0 905 60 0 60 0 2 -418z m2437 -2046 c38 -20
69 -79 52 -99 -10 -13 -7 -18 16 -29 58 -28 66 -100 17 -157 -14 -16 -21 -32
-16 -35 4 -3 20 14 35 37 31 48 35 96 10 138 -20 33 -17 38 32 49 93 21 171
-52 132 -125 -13 -25 -12 -29 15 -55 51 -51 26 -114 -57 -145 l-44 -18 24 -19
c32 -25 32 -61 0 -86 -14 -11 -57 -28 -97 -37 -53 -13 -81 -27 -110 -53 l-40
-36 49 -24 c94 -47 134 -107 143 -212 l5 -65 69 -5 c76 -5 92 -19 52 -45 -21
-14 -41 -16 -113 -11 -49 3 -257 13 -463 21 -1515 60 -2873 57 -4350 -9 -157
-7 -291 -11 -298 -8 -16 5 -16 27 1 40 7 6 66 14 131 18 l118 7 -5 31 c-3 17
-13 93 -23 169 -16 129 -16 140 -1 173 12 24 30 41 58 53 23 10 35 21 28 23
-6 2 -15 24 -18 49 -6 42 -7 44 -43 47 -34 3 -43 11 -39 35 0 4 -5 7 -13 7
-20 0 -45 37 -39 60 3 10 0 21 -6 24 -17 11 -13 66 5 73 10 3 14 13 11 25 -3
11 2 27 12 37 10 10 20 25 24 34 9 23 36 33 56 20 11 -7 23 -7 34 -2 18 11 57
-4 57 -21 0 -21 17 -8 31 22 8 18 23 35 34 37 11 2 28 12 38 22 24 26 74 25
82 -1 4 -11 11 -18 16 -15 14 9 49 -14 58 -38 5 -12 5 -31 1 -43 -6 -15 -3
-26 11 -37 23 -20 24 -31 4 -50 -11 -12 -12 -20 -2 -46 14 -37 2 -64 -31 -69
-12 -2 -24 -12 -27 -23 -4 -11 -19 -22 -34 -25 -24 -5 -30 -13 -40 -56 -15
-65 -14 -68 8 -68 29 0 78 -46 91 -85 13 -39 2 -139 -29 -270 -11 -44 -19 -80
-18 -81 6 -3 349 15 353 19 2 2 -1 17 -7 33 -16 38 -16 207 0 261 16 59 68
123 128 159 41 25 68 32 129 37 109 10 440 8 493 -2 65 -13 121 -57 155 -125
55 -107 37 -226 -47 -313 l-31 -33 295 0 c161 0 331 3 376 6 l82 7 -42 52
c-32 41 -48 52 -67 50 -13 -1 -26 -8 -29 -16 -6 -21 -23 -29 -42 -18 -12 6
-19 4 -23 -6 -9 -23 -44 -18 -62 10 -8 13 -13 28 -10 33 3 6 -1 15 -9 22 -9 7
-13 21 -10 31 3 9 1 20 -5 24 -20 13 -11 64 15 81 17 11 25 25 25 45 0 34 30
54 67 44 31 -7 66 20 58 46 -6 16 18 49 35 49 5 0 10 10 12 22 2 16 18 30 53
47 46 21 52 22 76 8 15 -8 38 -13 52 -10 36 7 65 -12 76 -50 7 -23 9 -26 10
-11 2 52 -66 86 -175 87 -36 0 -41 2 -36 19 7 30 46 50 89 46 31 -2 42 2 61
25 41 48 114 34 135 -25 5 -15 11 -16 32 -8 31 12 59 0 75 -31 6 -11 15 -17
21 -14 15 10 49 -5 49 -20 0 -8 6 -12 13 -10 22 8 42 -14 42 -47 0 -33 1 -33
44 -30 34 3 48 -1 67 -19 13 -12 24 -29 24 -36 0 -8 14 -26 30 -40 33 -27 38
-54 15 -73 -11 -9 -13 -16 -5 -24 14 -14 13 -46 -2 -46 -6 0 -8 -3 -5 -6 11
-11 -13 -44 -31 -44 -10 0 -27 6 -38 14 -13 10 -25 11 -35 5 -8 -5 -25 -9 -38
-9 -33 0 -94 -52 -131 -111 -17 -28 -29 -53 -26 -56 2 -3 10 5 16 17 8 15 17
19 28 14 9 -3 29 -6 44 -5 16 1 31 -6 37 -16 9 -16 34 -18 270 -21 l259 -4
-24 76 c-13 42 -24 84 -24 94 0 9 -13 42 -29 72 -39 74 -68 172 -76 257 l-7
70 32 11 c101 36 252 19 361 -39 110 -59 254 -219 365 -405 10 -17 16 -17 145
-1 163 21 209 21 209 4 0 -7 -25 -44 -56 -82 l-55 -70 43 -7 c24 -3 77 -7 119
-7 l76 -1 6 65 c6 81 38 131 105 168 37 20 136 47 171 47 3 0 0 5 -6 11 -8 8
-17 7 -34 -2 -20 -10 -25 -9 -34 6 -27 45 -49 65 -114 99 -101 53 -127 102
-80 152 l21 22 -30 16 c-42 22 -62 53 -62 98 0 30 6 42 34 64 33 27 34 29 20
55 -32 62 -4 129 61 145 43 11 103 -13 125 -49 23 -38 26 -67 6 -67 -23 0 -66
-59 -66 -89 0 -16 10 -40 21 -55 l21 -27 -26 -28 c-14 -15 -26 -37 -26 -49 0
-35 34 -93 79 -134 26 -25 45 -54 55 -85 8 -27 15 -40 15 -30 2 32 -26 83 -73
136 -73 82 -80 120 -31 159 l24 19 -19 39 c-28 53 -26 88 6 113 14 11 34 23
44 26 14 5 20 18 22 53 3 42 6 49 38 64 42 22 72 23 109 4z m-1102 -349 c81
-28 175 -77 181 -94 2 -7 -12 -19 -31 -27 -19 -7 -41 -23 -49 -34 -14 -20 -16
-19 -70 42 -31 34 -76 73 -102 86 -25 14 -46 31 -46 37 0 19 40 16 117 -10z
m-1872 -177 c3 -6 -4 -24 -15 -41 -12 -16 -21 -31 -19 -32 2 -1 17 -9 34 -17
39 -20 44 -46 11 -61 -26 -12 -35 -42 -16 -54 6 -3 10 -13 10 -21 0 -16 -36
-19 -45 -4 -12 20 -35 10 -35 -15 0 -18 -5 -25 -20 -25 -28 0 -33 18 -21 72 8
36 7 57 -5 98 -12 39 -13 55 -4 64 8 8 15 6 26 -9 14 -19 15 -18 45 18 31 38
43 44 54 27z"/>
<path d="M5355 4984 c-312 -51 -570 -276 -667 -584 -20 -65 -23 -96 -23 -225
0 -129 3 -160 23 -225 83 -264 275 -462 536 -553 86 -30 99 -32 241 -32 174 0
243 14 370 76 207 101 379 312 436 534 29 112 29 290 0 400 -72 275 -298 507
-571 585 -74 21 -275 35 -345 24z"/>
<path d="M1020 4606 l0 -366 123 0 c218 0 329 45 403 161 83 133 65 349 -39
457 -69 72 -149 96 -364 108 l-123 7 0 -367z"/>
<path d="M1260 2451 c0 -9 30 -24 36 -18 2 1 -6 8 -16 15 -11 7 -20 8 -20 3z"/>
<path d="M1302 2400 c0 -14 2 -19 5 -12 2 6 2 18 0 25 -3 6 -5 1 -5 -13z"/>
<path d="M1318 2360 c17 -19 15 -40 -5 -64 -18 -21 -18 -21 5 -2 26 23 28 49
5 67 -15 11 -16 11 -5 -1z"/>
<path d="M5934 2275 c23 -56 20 -64 -42 -125 -62 -59 -119 -136 -110 -146 3
-3 17 15 32 40 14 24 48 61 76 81 77 57 98 120 52 157 -14 11 -15 10 -8 -7z"/>
<path d="M1270 2225 c-9 -11 -9 -22 -1 -46 16 -46 14 -58 -11 -69 -16 -7 -5
-8 37 -4 70 8 85 14 31 14 l-37 0 7 60 c7 61 -1 75 -26 45z"/>
<path d="M4407 2212 c-19 -20 -23 -52 -7 -52 16 0 52 40 48 53 -7 19 -24 18
-41 -1z"/>
<path d="M4540 2207 c0 -23 -40 -101 -79 -155 -18 -25 -50 -52 -77 -64 -36
-18 -41 -24 -27 -29 41 -15 118 14 153 58 45 58 65 154 40 193 -8 13 -10 12
-10 -3z"/>
<path d="M3776 2164 c-6 -15 -4 -15 11 -3 10 7 20 15 22 16 2 2 -3 3 -11 3 -9
0 -19 -7 -22 -16z"/>
<path d="M3735 2150 c-3 -6 1 -7 9 -4 18 7 21 14 7 14 -6 0 -13 -4 -16 -10z"/>
<path d="M3578 2125 c5 -11 12 -27 15 -35 5 -13 6 -13 6 1 1 8 -6 24 -15 35
-15 19 -15 19 -6 -1z"/>
<path d="M2188 2123 c-23 -6 -22 -12 7 -48 l25 -30 200 0 201 0 -26 22 c-14
12 -44 27 -68 34 -75 20 -292 34 -339 22z"/>
<path d="M3680 2115 c-6 -8 -9 -19 -5 -25 4 -6 2 -16 -3 -23 -18 -23 -22 -64
-7 -77 12 -10 13 -6 8 24 -4 27 -2 37 11 42 12 5 13 10 5 26 -7 14 -7 23 2 34
6 8 9 14 6 14 -2 0 -10 -7 -17 -15z"/>
<path d="M3284 2085 c8 -8 18 -15 22 -15 3 0 1 7 -6 15 -7 8 -17 15 -22 15 -5
0 -3 -7 6 -15z"/>
<path d="M1934 2062 c-21 -16 -52 -53 -69 -83 -39 -71 -42 -180 -8 -245 25
-47 38 -54 94 -54 36 0 38 2 28 19 -16 24 -5 51 21 51 15 0 20 -7 20 -29 0
-16 -6 -32 -12 -34 -8 -3 -6 -6 5 -6 81 -4 142 90 142 219 0 81 -16 123 -62
166 -38 35 -107 33 -159 -4z m1 -108 c0 -19 -5 -29 -15 -29 -16 0 -25 28 -16
51 10 25 31 10 31 -22z m170 -35 c0 -24 -5 -34 -15 -34 -16 0 -25 37 -16 62
10 26 31 8 31 -28z m-90 -34 c0 -23 -4 -30 -20 -30 -21 0 -31 25 -21 51 11 28
41 12 41 -21z m-67 -53 c5 -32 -16 -56 -34 -41 -15 12 -19 51 -7 63 14 13 38
0 41 -22z m140 -13 c2 -16 -3 -29 -12 -32 -20 -8 -39 18 -31 43 9 29 39 21 43
-11z"/>
<path d="M3400 2063 c5 -2 10 -16 10 -31 0 -14 7 -33 16 -43 23 -26 0 -71 -43
-84 -21 -6 -33 -16 -33 -27 0 -9 -10 -26 -22 -38 -12 -11 -17 -20 -11 -20 7 0
20 11 31 25 11 14 23 25 28 25 4 0 27 -21 51 -47 51 -57 56 -44 9 25 -31 47
-33 52 -17 66 12 11 21 12 35 4 16 -9 17 -7 11 22 -4 18 -14 41 -24 51 -9 11
-18 31 -21 46 -3 14 -11 28 -18 29 -7 1 -8 0 -2 -3z"/>
<path d="M3565 2042 c-6 -4 -18 -20 -28 -37 l-18 -30 24 29 c16 18 27 24 31
17 4 -6 13 -11 19 -11 7 0 4 5 -6 11 -9 6 -15 14 -12 20 7 11 4 11 -10 1z"/>
<path d="M1189 2019 c-17 -33 9 -330 31 -353 18 -18 18 0 -2 124 -12 81 -17
147 -13 188 6 66 3 75 -16 41z"/>
<path d="M3713 1964 c3 -4 0 -18 -7 -33 -8 -14 -17 -42 -21 -61 l-7 -35 25 23
c14 13 31 37 38 54 l12 30 21 -25 c12 -14 32 -28 46 -32 21 -6 20 -3 -8 14
-18 12 -38 32 -44 46 -8 17 -19 25 -36 25 -14 0 -23 -3 -19 -6z"/>
<path d="M5755 1960 c-3 -5 1 -10 10 -10 9 0 13 5 10 10 -3 6 -8 10 -10 10 -2
0 -7 -4 -10 -10z"/>
<path d="M5875 1820 c-7 -11 21 -95 38 -117 30 -40 37 46 7 95 -20 33 -34 40
-45 22z"/>
<path d="M5080 1768 c-87 -16 -83 -28 8 -28 77 0 132 13 132 32 0 10 -69 8
-140 -4z"/>
<path d="M4442 1730 l-23 -30 83 0 83 1 -55 29 c-30 16 -58 29 -61 30 -3 0
-15 -13 -27 -30z"/>
<path d="M4997 1700 c24 -16 44 -20 85 -18 l53 3 -60 13 c-118 25 -114 25 -78
2z"/>
<path d="M5910 1660 c0 -5 7 -10 15 -10 8 0 15 5 15 10 0 6 -7 10 -15 10 -8 0
-15 -4 -15 -10z"/>
</g>
</svg>
